<svg xmlns="http://www.w3.org/2000/svg" viewBox="0 0 512 512"><path d="M256 0C114.838 0 0 114.838 0 256c0 141.156 114.838 256 256 256 141.156 0 256-114.844 256-256C512 114.838 397.156 0 256 0zm0 476.362c-121.508 0-220.362-98.854-220.362-220.362S134.492 35.638 256 35.638c121.514 0 220.362 98.848 220.362 220.356S377.514 476.362 256 476.362z"/><path d="M351.783 186.714C318.266 140.628 307.8 82.758 323.053 27.94l-34.325-9.557c-18.193 65.36-5.72 134.355 34.153 189.185 39.279 54.859 101.022 87.877 169.405 90.592l1.414-35.62c-57.318-2.269-109.017-29.871-141.917-75.826zM178.891 311.976c-38.002-51.705-96.169-84.427-159.575-89.766l-2.994 35.513c53.154 4.479 101.943 31.944 133.845 75.357 31.528 42.896 42.766 97.803 30.833 150.642l34.765 7.852c14.207-62.92.766-128.381-36.874-179.598z"/></svg>