<svg xmlns="http://www.w3.org/2000/svg" viewBox="0 0 512 512"><path d="M186 301h140v30H186z"/><circle cx="391" cy="296" r="30"/><circle cx="121" cy="296" r="30"/><path d="M512 216c0-24.813-20.187-45-45-45h-30c-3.916 0-7.716.505-11.34 1.45L396.571 91H115.429L86.34 172.45A44.888 44.888 0 0075 171H45c-24.813 0-45 20.187-45 45 0 20.195 13.374 37.324 31.729 43.001A34.02 34.02 0 0031 266v155h95v-30h260v30h95V266c0-2.382-.25-4.714-.729-6.999C498.626 253.324 512 236.195 512 216zm-375.429-95h238.858l24.721 69.219a44.79 44.79 0 00-6.825 14.954C354.603 195.996 306.562 191 256 191s-98.603 4.996-137.325 14.173a44.79 44.79 0 00-6.825-14.954L136.571 121zM45 231c-8.271 0-15-6.729-15-15s6.729-15 15-15h30c7.386 0 13.528 5.372 14.76 12.411C74.514 218.618 62.217 224.49 52.885 231H45zm406 130H61v-95c0-3.512 9.301-16.196 50.628-28.004C149.99 227.036 201.262 221 256 221c54.738 0 106.01 6.036 144.372 16.996C441.699 249.804 451 262.488 451 266v95zm16-130h-7.885c-9.332-6.51-21.629-12.382-36.875-17.589C423.472 206.372 429.614 201 437 201h30c8.271 0 15 6.729 15 15s-6.729 15-15 15z"/></svg>