<svg xmlns="http://www.w3.org/2000/svg" viewBox="0 0 55.254 55.254"><g fill="#010002"><path d="M27.629 0C17.876 0 9.941 7.934 9.941 17.687c0 4.73 1.856 9.179 5.225 12.525.106.108.266.476.273.677.057 1.468.466 4.837 2.841 7.472a3.073 3.073 0 00-.329.59 3.307 3.307 0 00.202 2.919c-.372.971-.262 2.043.22 2.858l-.004.01c-.58 1.429-.106 3.093 1.093 3.865.064.042.976.628 2.535 1.186-.017.219-.121 2.186 1.306 3.746 1.018 1.113 2.491 1.691 4.381 1.718l.128.001c1.816-.001 3.23-.545 4.204-1.621 1.386-1.529 1.269-3.484 1.234-3.844 1.47-.526 2.376-1.077 2.533-1.18 1.213-.782 1.685-2.449 1.099-3.873l-.005-.012a3.304 3.304 0 00.226-2.844 3.342 3.342 0 00.2-2.935 3.105 3.105 0 00-.298-.541c2.351-2.639 2.767-6.031 2.827-7.512.008-.198.175-.577.281-.685 3.354-3.355 5.2-7.802 5.2-12.521C45.314 7.934 37.381 0 27.629 0zm2.164 51.618c-.396.435-1.114.651-2.067.635-1.017-.014-1.754-.258-2.192-.725-.277-.295-.412-.656-.479-.953.482.079.99.141 1.523.181.516.04.926.048 1.009.049h.082a17.9 17.9 0 002.572-.238c-.047.32-.16.733-.448 1.051zm4.463-8.416a1.59 1.59 0 00-.753 1.092c-.122.755.327 1.262.603 1.578.041.1-.016.232.049.217-.021.014-2.235 1.413-5.706 1.675-.401.031-.726.039-.822.04-.097-.002-.421-.01-.822-.04-3.426-.259-5.624-1.625-5.647-1.625h-.001c-.024-.039-.049-.17.046-.333.218-.245.672-.755.551-1.512a1.59 1.59 0 00-.753-1.093l-.034-.001c-.024-.038-.05-.167.022-.313.216-.271.618-.774.484-1.499a1.57 1.57 0 00-.415-.794c1.167.546 3.356 1.345 6.24 1.388h.677a15.836 15.836 0 003.193-.376 12.899 12.899 0 001.364-.363c.19-.061.382-.122.562-.191.426-.155.792-.31 1.088-.448a1.56 1.56 0 00-.405.784c-.134.72.26 1.215.516 1.548.04.095.02.216.048.216h.001l-.086.05zm3.737-15.115c-.644.643-1.12 1.747-1.158 2.685-.098 2.462-.992 6.266-5.324 7.644l-.155.048c-1.003.3-2.182.475-3.574.475h-.14c-7.739-.064-9.089-5.142-9.204-8.165-.037-.957-.501-2.037-1.156-2.688-2.799-2.78-4.34-6.473-4.34-10.398 0-8.098 6.589-14.687 14.688-14.687 8.098 0 14.686 6.588 14.686 14.687-.002 3.917-1.537 7.61-4.323 10.399z"/><path d="M34.148 21.562c-6.43 5.259-12.773.216-13.04 0a.502.502 0 00-.812.46l2.042 13.867a.5.5 0 00.99-.145L21.452 23c2.064 1.254 7.105 3.549 12.285.108l-2.381 12.614a.5.5 0 10.982.186l2.617-13.867a.501.501 0 00-.236-.523.501.501 0 00-.571.044z"/></g></svg>